<svg width="20" height="21" viewBox="0 0 20 21" fill="none" xmlns="http://www.w3.org/2000/svg">
<g clip-path="url(#clip0_60_239)">
<path d="M7.93024 13.4392L13.3404 10.6462L7.93024 7.81421V13.4392ZM10.0005 3.8103C11.0552 3.8103 12.0123 3.82332 12.8716 3.84937C13.731 3.86239 14.4667 3.88192 15.0787 3.90796C15.6907 3.934 16.1659 3.96004 16.5045 3.98608C16.83 3.9991 16.9927 4.00562 16.9927 4.00562C17.188 4.03166 17.4778 4.08049 17.8619 4.1521C18.246 4.22371 18.6269 4.46134 19.0045 4.86499C19.0045 4.86499 19.1151 5.02124 19.3365 5.33374C19.5578 5.64624 19.7141 6.15405 19.8052 6.85718C19.9094 7.66447 19.968 8.4034 19.981 9.07397C19.994 9.74455 20.0005 10.0798 20.0005 10.0798V11.6033C20.0005 11.6033 19.994 11.9418 19.981 12.6189C19.968 13.296 19.9094 14.0382 19.8052 14.8455C19.7141 15.5225 19.5578 16.0206 19.3365 16.3396C19.1151 16.6586 19.0045 16.8181 19.0045 16.8181C18.6269 17.2218 18.246 17.4594 17.8619 17.531C17.4778 17.6026 17.188 17.6449 16.9927 17.658C16.9927 17.658 16.83 17.671 16.5045 17.697C16.1659 17.7231 15.6907 17.7491 15.0787 17.7751C14.4667 17.8012 13.731 17.8207 12.8716 17.8337C12.0123 17.8598 11.0552 17.8728 10.0005 17.8728C7.39638 17.8468 5.61253 17.8077 4.64899 17.7556C3.68545 17.7035 3.20367 17.6775 3.20367 17.6775C2.98232 17.6384 2.65354 17.5863 2.21735 17.5212C1.78115 17.4561 1.37425 17.2218 0.996643 16.8181C0.996643 16.8181 0.885966 16.6586 0.664612 16.3396C0.443258 16.0206 0.287008 15.5225 0.195862 14.8455C0.0916951 14.0382 0.0331014 13.296 0.0200806 12.6189C0.00705973 11.9418 0.000549316 11.6033 0.000549316 11.6033V10.0798C0.000549316 10.0798 0.00705973 9.74455 0.0200806 9.07397C0.0331014 8.4034 0.0916951 7.66447 0.195862 6.85718C0.287008 6.15405 0.443258 5.64624 0.664612 5.33374C0.885966 5.02124 0.996643 4.86499 0.996643 4.86499C1.37425 4.46134 1.75511 4.22371 2.13922 4.1521C2.52334 4.08049 2.81305 4.03166 3.00836 4.00562C3.00836 4.00562 3.17112 3.9991 3.49664 3.98608C3.83518 3.96004 4.31045 3.934 4.92242 3.90796C5.5344 3.88192 6.27008 3.86239 7.12946 3.84937C7.98883 3.82332 8.94586 3.8103 10.0005 3.8103Z" fill="white"/>
</g>
<defs>
<clipPath id="clip0_60_239">
<rect width="20" height="20" fill="white" transform="matrix(1 0 0 -1 0.000549316 20.6658)"/>
</clipPath>
</defs>
</svg>
