<svg width="20" height="21" viewBox="0 0 20 21" fill="none" xmlns="http://www.w3.org/2000/svg">
<g clip-path="url(#clip0_60_236)">
<path d="M10.0591 2.46265C11.4133 2.46265 12.289 2.46265 12.6861 2.46265C13.0832 2.46265 13.5422 2.46265 14.063 2.46265C14.5839 2.46265 14.9843 2.51147 15.2642 2.60913C15.5442 2.70679 15.7492 2.78817 15.8795 2.85327C16.1269 2.98348 16.3482 3.09741 16.5435 3.19507C16.7388 3.29272 16.9016 3.43921 17.0318 3.63452C17.2271 3.82983 17.3736 4.00887 17.4713 4.17163C17.5689 4.33439 17.6828 4.53947 17.813 4.78687C17.8782 4.98218 17.9433 5.21981 18.0084 5.49976C18.0735 5.7797 18.1386 6.14754 18.2037 6.60327C18.2037 7.1241 18.2037 7.59937 18.2037 8.02905C18.2037 8.45874 18.2037 9.31812 18.2037 10.6072C18.2037 11.8962 18.2037 12.7556 18.2037 13.1853C18.2037 13.615 18.2037 14.0837 18.2037 14.5916C18.2037 15.1124 18.1548 15.5128 18.0572 15.7927C17.9595 16.0727 17.8782 16.2778 17.813 16.408C17.7479 16.6684 17.6503 16.88 17.5201 17.0427C17.3899 17.2055 17.2271 17.378 17.0318 17.5603C16.8365 17.7556 16.6574 17.9021 16.4947 17.9998C16.3319 18.0974 16.1269 18.2113 15.8795 18.3416C15.6841 18.4067 15.4465 18.4718 15.1666 18.5369C14.8866 18.602 14.5188 18.6671 14.063 18.7322C13.5422 18.7322 13.067 18.7322 12.6373 18.7322C12.2076 18.7322 11.3482 18.7322 10.0591 18.7322C8.77008 18.7322 7.91071 18.7322 7.48102 18.7322C7.05133 18.7322 6.58258 18.7322 6.07477 18.7322C5.55393 18.7322 5.15354 18.6833 4.8736 18.5857C4.59365 18.488 4.38857 18.4067 4.25836 18.3416C3.99795 18.2764 3.78636 18.1788 3.6236 18.0486C3.46084 17.9184 3.28831 17.7556 3.10602 17.5603C2.8456 17.4952 2.66005 17.3715 2.54938 17.1892C2.4387 17.0069 2.31826 16.7921 2.18805 16.5447C2.12295 16.3494 2.05784 16.1117 1.99274 15.8318C1.92763 15.5518 1.86253 15.184 1.79742 14.7283C1.79742 14.2074 1.79742 13.7322 1.79742 13.3025C1.79742 12.8728 1.79742 12.0134 1.79742 10.7244C1.79742 9.4353 1.79742 8.57593 1.79742 8.14624C1.79742 7.71655 1.79742 7.2478 1.79742 6.73999C1.79742 6.21916 1.84625 5.81877 1.94391 5.53882C2.04156 5.25887 2.12295 5.05379 2.18805 4.92358C2.31826 4.59806 2.43219 4.35067 2.52985 4.1814C2.6275 4.01213 2.77399 3.82983 2.9693 3.63452C3.16461 3.43921 3.34365 3.29272 3.50641 3.19507C3.66917 3.09741 3.87425 2.98348 4.12164 2.85327C4.31696 2.78817 4.55459 2.72306 4.83453 2.65796C5.11448 2.59286 5.48232 2.52775 5.93805 2.46265C6.45888 2.46265 6.9374 2.46265 7.3736 2.46265C7.80979 2.46265 8.70498 2.46265 10.0591 2.46265ZM10.0591 0.665771C8.70498 0.665771 7.80979 0.665771 7.3736 0.665771C6.9374 0.665771 6.45888 0.665771 5.93805 0.665771C5.41722 0.665771 4.95823 0.721109 4.5611 0.831787C4.16396 0.942465 3.80263 1.0564 3.47711 1.17358C3.16461 1.30379 2.85211 1.46655 2.53961 1.66187C2.22711 1.85718 1.94065 2.08504 1.68024 2.34546C1.41982 2.60588 1.19196 2.89233 0.996643 3.20483C0.801331 3.51733 0.63857 3.82983 0.508362 4.14233C0.391174 4.46786 0.293518 4.81291 0.215393 5.17749C0.137268 5.54207 0.0656535 6.01733 0.000549316 6.60327C0.000549316 7.1241 0.000549316 7.60262 0.000549316 8.03882C0.000549316 8.47502 0.000549316 9.3702 0.000549316 10.7244C0.000549316 12.0785 0.000549316 12.977 0.000549316 13.4197C0.000549316 13.8624 0.000549316 14.3442 0.000549316 14.865C0.000549316 15.3728 0.0558879 15.8253 0.166565 16.2224C0.277242 16.6195 0.391174 16.9809 0.508362 17.3064C0.63857 17.6319 0.801331 17.9347 0.996643 18.2146C1.19196 18.4945 1.41982 18.7973 1.68024 19.1228C1.94065 19.3832 2.22711 19.6078 2.53961 19.7966C2.85211 19.9854 3.16461 20.1449 3.47711 20.2751C3.80263 20.4054 4.16396 20.5095 4.5611 20.5876C4.95823 20.6658 5.41722 20.7374 5.93805 20.8025C6.45888 20.8025 6.9374 20.8025 7.3736 20.8025C7.80979 20.8025 8.70498 20.8025 10.0591 20.8025C11.4133 20.8025 12.3117 20.8025 12.7545 20.8025C13.1972 20.8025 13.6789 20.8025 14.1998 20.8025C14.7076 20.8025 15.1601 20.7472 15.5572 20.6365C15.9543 20.5258 16.3157 20.4054 16.6412 20.2751C16.9667 20.1449 17.2694 19.9854 17.5494 19.7966C17.8293 19.6078 18.1321 19.3832 18.4576 19.1228C18.718 18.8624 18.9426 18.5759 19.1314 18.2634C19.3202 17.9509 19.4797 17.6319 19.6099 17.3064C19.7401 16.9809 19.8443 16.6195 19.9224 16.2224C20.0005 15.8253 20.0722 15.3728 20.1373 14.865C20.1373 14.3442 20.1373 13.8624 20.1373 13.4197C20.1373 12.977 20.1373 12.0785 20.1373 10.7244C20.1373 9.3702 20.1373 8.47502 20.1373 8.03882C20.1373 7.60262 20.1373 7.1241 20.1373 6.60327C20.1373 6.08244 20.0819 5.62345 19.9713 5.22632C19.8606 4.82918 19.7401 4.46786 19.6099 4.14233C19.4797 3.82983 19.3202 3.53361 19.1314 3.25366C18.9426 2.97371 18.718 2.67098 18.4576 2.34546C18.1972 2.08504 17.9107 1.85718 17.5982 1.66187C17.2857 1.46655 16.9667 1.30379 16.6412 1.17358C16.2636 1.0564 15.8892 0.95874 15.5181 0.880615C15.147 0.80249 14.7076 0.730875 14.1998 0.665771C13.6138 0.665771 13.1158 0.665771 12.7056 0.665771C12.2955 0.665771 11.4133 0.665771 10.0591 0.665771ZM10.0591 5.56812C9.35602 5.56812 8.69196 5.70483 8.06696 5.97827C7.44196 6.25171 6.89508 6.6228 6.42633 7.09155C5.95758 7.5603 5.58649 8.10718 5.31305 8.73218C5.03961 9.35718 4.90289 10.0212 4.90289 10.7244C4.90289 11.4405 5.03961 12.1111 5.31305 12.7361C5.58649 13.3611 5.95758 13.908 6.42633 14.3767C6.89508 14.8455 7.44196 15.2166 8.06696 15.49C8.69196 15.7634 9.35602 15.9001 10.0591 15.9001C10.7753 15.9001 11.4459 15.7634 12.0709 15.49C12.6959 15.2166 13.2427 14.8455 13.7115 14.3767C14.1802 13.908 14.5513 13.3611 14.8248 12.7361C15.0982 12.1111 15.2349 11.4405 15.2349 10.7244C15.1959 10.0212 15.0396 9.35718 14.7662 8.73218C14.4927 8.10718 14.1249 7.5603 13.6627 7.09155C13.2004 6.6228 12.6633 6.25171 12.0513 5.97827C11.4394 5.70483 10.7753 5.56812 10.0591 5.56812ZM10.0591 13.947C9.16071 13.947 8.37946 13.615 7.71539 12.9509C7.05133 12.2869 6.7193 11.5056 6.7193 10.6072C6.7193 9.69572 7.05133 8.90796 7.71539 8.2439C8.37946 7.57983 9.16071 7.2478 10.0591 7.2478C10.9706 7.2478 11.7584 7.57983 12.4224 8.2439C13.0865 8.90796 13.4185 9.69572 13.4185 10.6072C13.3534 11.5707 13.0051 12.3682 12.3736 12.9998C11.7421 13.6313 10.9706 13.947 10.0591 13.947ZM16.524 5.31421C16.524 5.63973 16.4101 5.91317 16.1822 6.13452C15.9543 6.35588 15.6776 6.46655 15.3521 6.46655C15.0266 6.46655 14.7532 6.35588 14.5318 6.13452C14.3104 5.91317 14.1998 5.63973 14.1998 5.31421C14.1998 4.98869 14.3104 4.712 14.5318 4.48413C14.7532 4.25627 15.0266 4.14233 15.3521 4.14233C15.6776 4.14233 15.9543 4.25627 16.1822 4.48413C16.4101 4.712 16.524 4.98869 16.524 5.31421Z" fill="white"/>
</g>
<defs>
<clipPath id="clip0_60_236">
<rect width="20" height="20" fill="white" transform="matrix(1 0 0 -1 0.000549316 20.6658)"/>
</clipPath>
</defs>
</svg>
