<svg width="20" height="21" viewBox="0 0 20 21" fill="none" xmlns="http://www.w3.org/2000/svg">
<g clip-path="url(#clip0_60_242)">
<path d="M11.8755 4.41577H15.0005V0.665771H11.8755C11.2766 0.665771 10.7102 0.782959 10.1763 1.01733C9.64248 1.23869 9.17698 1.54793 8.77985 1.94507C8.38271 2.3422 8.07347 2.8077 7.85211 3.34155C7.61774 3.87541 7.50055 4.44181 7.50055 5.04077V6.91577H5.00055V10.6658H7.50055V20.6658H11.2505V10.6658H14.3755L15.0005 6.91577H11.2505V5.04077C11.2505 4.8715 11.3124 4.72502 11.4361 4.60132C11.5598 4.47762 11.7063 4.41577 11.8755 4.41577Z" fill="white"/>
</g>
<defs>
<clipPath id="clip0_60_242">
<rect width="20" height="20" fill="white" transform="matrix(1 0 0 -1 0.000549316 20.6658)"/>
</clipPath>
</defs>
</svg>
