<svg width="20" height="21" viewBox="0 0 20 21" fill="none" xmlns="http://www.w3.org/2000/svg">
<g clip-path="url(#clip0_60_245)">
<path d="M20.0005 5.07983C19.636 5.2491 19.2551 5.38908 18.858 5.49976C18.4608 5.61043 18.0539 5.6853 17.6373 5.72437C18.067 5.47697 18.438 5.15796 18.7505 4.76733C19.063 4.37671 19.2974 3.94051 19.4537 3.45874C19.05 3.69312 18.6301 3.89494 18.1939 4.06421C17.7577 4.23348 17.3052 4.36369 16.8365 4.45483C16.4719 4.06421 16.0292 3.75171 15.5084 3.51733C14.9875 3.28296 14.4341 3.16577 13.8482 3.16577C13.2883 3.16577 12.7545 3.26994 12.2466 3.47827C11.7519 3.69963 11.3189 3.99585 10.9478 4.36694C10.5767 4.73804 10.287 5.17098 10.0787 5.66577C9.85732 6.16056 9.74664 6.69442 9.74664 7.26733C9.74664 7.42358 9.75641 7.57983 9.77594 7.73608C9.79547 7.89233 9.81826 8.04858 9.8443 8.20483C8.99794 8.16577 8.17763 8.03556 7.38336 7.81421C6.57607 7.59285 5.81435 7.29663 5.09821 6.92554C4.38206 6.55444 3.71149 6.11499 3.08649 5.60718C2.46149 5.09937 1.89508 4.53296 1.38727 3.90796C1.218 4.20744 1.08453 4.53296 0.986877 4.88452C0.889221 5.23608 0.840393 5.60067 0.840393 5.97827C0.840393 6.6814 1.00641 7.33244 1.33844 7.9314C1.67047 8.53035 2.10992 9.01864 2.6568 9.39624C2.33128 9.38322 2.00901 9.33114 1.69 9.23999C1.37099 9.14884 1.07477 9.02515 0.801331 8.8689C0.801331 8.88192 0.801331 8.89168 0.801331 8.89819C0.801331 8.9047 0.801331 8.91447 0.801331 8.92749C0.801331 9.91707 1.11709 10.7895 1.7486 11.5447C2.38011 12.2999 3.16461 12.7686 4.10211 12.9509C3.93284 13.003 3.75706 13.0388 3.57477 13.0583C3.39248 13.0779 3.20367 13.0876 3.00836 13.0876C2.87815 13.0876 2.7512 13.0811 2.6275 13.0681C2.5038 13.0551 2.37685 13.0421 2.24664 13.0291C2.50706 13.8363 2.98558 14.5069 3.68219 15.0408C4.3788 15.5746 5.17633 15.8546 6.07477 15.8806C5.37164 16.4275 4.58714 16.8572 3.72125 17.1697C2.85537 17.4822 1.94065 17.6384 0.977112 17.6384C0.807841 17.6384 0.641825 17.6319 0.479065 17.6189C0.316305 17.6059 0.156799 17.5929 0.000549316 17.5798C0.456279 17.8663 0.931539 18.1267 1.42633 18.3611C1.92112 18.5824 2.43219 18.7712 2.95953 18.9275C3.48688 19.0837 4.0305 19.2074 4.59039 19.2986C5.15029 19.3767 5.7167 19.4158 6.28961 19.4158C8.17763 19.4158 9.8443 19.0642 11.2896 18.3611C12.7479 17.6449 13.9719 16.727 14.9615 15.6072C15.9511 14.4874 16.6998 13.2374 17.2076 11.8572C17.7154 10.4639 17.9693 9.09025 17.9693 7.73608C17.9693 7.64494 17.966 7.55705 17.9595 7.47241C17.953 7.38778 17.9498 7.29989 17.9498 7.20874C18.3534 6.92228 18.7278 6.60002 19.0728 6.24194C19.4179 5.88387 19.7271 5.4965 20.0005 5.07983Z" fill="white"/>
</g>
<defs>
<clipPath id="clip0_60_245">
<rect width="20" height="20" fill="white" transform="matrix(1 0 0 -1 0.000549316 20.6658)"/>
</clipPath>
</defs>
</svg>
