<svg width="1631" height="108" viewBox="0 0 1631 108" fill="none" xmlns="http://www.w3.org/2000/svg">
<path d="M0.0390624 106V2H68.8984V20.1289H22.0273V44.9102H64.3281V63.0391H22.0273V106H0.0390624ZM175.45 38.4102H153.208C152.802 35.5325 151.972 32.9766 150.72 30.7422C149.467 28.474 147.859 26.5443 145.896 24.9531C143.932 23.362 141.664 22.1432 139.091 21.2969C136.552 20.4505 133.793 20.0273 130.813 20.0273C125.431 20.0273 120.742 21.3646 116.747 24.0391C112.752 26.6797 109.655 30.5391 107.454 35.6172C105.254 40.6615 104.153 46.7891 104.153 54C104.153 61.4141 105.254 67.6432 107.454 72.6875C109.688 77.7318 112.803 81.5404 116.798 84.1133C120.793 86.6862 125.414 87.9727 130.661 87.9727C133.606 87.9727 136.332 87.5833 138.837 86.8047C141.376 86.026 143.627 84.8919 145.591 83.4023C147.554 81.8789 149.179 80.0339 150.466 77.8672C151.786 75.7005 152.7 73.2292 153.208 70.4531L175.45 70.5547C174.875 75.3281 173.436 79.9323 171.134 84.3672C168.866 88.7682 165.802 92.7122 161.942 96.1992C158.117 99.6523 153.547 102.395 148.231 104.426C142.95 106.423 136.975 107.422 130.306 107.422C121.03 107.422 112.735 105.323 105.423 101.125C98.1442 96.9271 92.389 90.8503 88.1572 82.8945C83.9593 74.9388 81.8604 65.3073 81.8604 54C81.8604 42.6589 83.9932 33.0104 88.2588 25.0547C92.5244 17.099 98.3135 11.0391 105.626 6.875C112.938 2.67708 121.165 0.578121 130.306 0.578121C136.332 0.578121 141.918 1.42448 147.063 3.11718C152.243 4.80989 156.83 7.28125 160.825 10.5312C164.82 13.7474 168.07 17.6914 170.575 22.3633C173.114 27.0352 174.739 32.3841 175.45 38.4102ZM224.314 106V2H265.955C273.606 2 279.988 3.13411 285.1 5.40234C290.212 7.67057 294.054 10.819 296.627 14.8477C299.2 18.8424 300.486 23.4466 300.486 28.6602C300.486 32.7227 299.674 36.2943 298.049 39.375C296.424 42.4219 294.189 44.9271 291.346 46.8906C288.536 48.8203 285.32 50.1914 281.697 51.0039V52.0195C285.658 52.1888 289.365 53.306 292.818 55.3711C296.305 57.4362 299.132 60.3307 301.299 64.0547C303.465 67.7448 304.549 72.1458 304.549 77.2578C304.549 82.776 303.178 87.7018 300.436 92.0352C297.727 96.3346 293.715 99.737 288.4 102.242C283.085 104.747 276.535 106 268.748 106H224.314ZM246.303 88.0234H264.229C270.356 88.0234 274.825 86.8555 277.635 84.5195C280.445 82.1497 281.85 79.0013 281.85 75.0742C281.85 72.1966 281.156 69.6576 279.768 67.457C278.38 65.2565 276.399 63.5299 273.826 62.2773C271.287 61.0247 268.257 60.3984 264.736 60.3984H246.303V88.0234ZM246.303 45.5195H262.604C265.617 45.5195 268.291 44.9948 270.627 43.9453C272.997 42.862 274.859 41.3385 276.213 39.375C277.601 37.4115 278.295 35.0586 278.295 32.3164C278.295 28.5586 276.958 25.5286 274.283 23.2266C271.643 20.9245 267.885 19.7734 263.01 19.7734H246.303V45.5195ZM336.782 106H313.22L349.122 2H377.458L413.31 106H389.747L363.696 25.7656H362.884L336.782 106ZM335.31 65.1211H390.966V82.2852H335.31V65.1211ZM409.12 2H433.749L457.464 46.7891H458.479L482.194 2H506.823L468.89 69.2344V106H447.054V69.2344L409.12 2ZM518.833 106V2H588.911V20.1289H540.821V44.9102H585.306V63.0391H540.821V87.8711H589.114V106H518.833ZM606.393 106V2H647.424C655.278 2 661.981 3.40495 667.533 6.21484C673.119 8.99088 677.368 12.9349 680.279 18.0469C683.225 23.125 684.697 29.1003 684.697 35.9727C684.697 42.8789 683.208 48.8203 680.229 53.7969C677.249 58.7396 672.933 62.5312 667.279 65.1719C661.66 67.8125 654.855 69.1328 646.865 69.1328H619.393V51.4609H643.311C647.508 51.4609 650.995 50.8854 653.771 49.7344C656.548 48.5833 658.613 46.8568 659.967 44.5547C661.355 42.2526 662.049 39.3919 662.049 35.9727C662.049 32.5195 661.355 29.6081 659.967 27.2383C658.613 24.8685 656.531 23.0742 653.721 21.8555C650.945 20.6029 647.441 19.9766 643.209 19.9766H628.381V106H606.393ZM662.557 58.6719L688.404 106H664.131L638.842 58.6719H662.557ZM787.225 2V106H768.232L722.986 40.543H722.225V106H700.236V2H719.533L764.424 67.4062H765.338V2H787.225ZM838.488 106V2H907.348V20.1289H860.477V44.9102H902.777V63.0391H860.477V106H838.488ZM927.076 106H903.514L939.416 2H967.752L1003.6 106H980.041L953.99 25.7656H953.178L927.076 106ZM925.604 65.1211H981.26V82.2852H925.604V65.1211ZM1103.11 2V106H1084.12L1038.87 40.543H1038.11V106H1016.12V2H1035.42L1080.31 67.4062H1081.22V2H1103.11ZM1150.41 20.1289V2H1235.83V20.1289H1203.99V106H1182.25V20.1289H1150.41ZM1340.71 54C1340.71 65.3411 1338.57 74.9896 1334.27 82.9453C1330 90.901 1324.18 96.9779 1316.8 101.176C1309.45 105.34 1301.19 107.422 1292.02 107.422C1282.77 107.422 1274.48 105.323 1267.13 101.125C1259.79 96.9271 1253.98 90.8503 1249.71 82.8945C1245.45 74.9388 1243.32 65.3073 1243.32 54C1243.32 42.6589 1245.45 33.0104 1249.71 25.0547C1253.98 17.099 1259.79 11.0391 1267.13 6.875C1274.48 2.67708 1282.77 0.578121 1292.02 0.578121C1301.19 0.578121 1309.45 2.67708 1316.8 6.875C1324.18 11.0391 1330 17.099 1334.27 25.0547C1338.57 33.0104 1340.71 42.6589 1340.71 54ZM1318.42 54C1318.42 46.6536 1317.32 40.4583 1315.12 35.4141C1312.95 30.3698 1309.89 26.5443 1305.93 23.9375C1301.97 21.3307 1297.33 20.0273 1292.02 20.0273C1286.7 20.0273 1282.06 21.3307 1278.1 23.9375C1274.14 26.5443 1271.06 30.3698 1268.86 35.4141C1266.69 40.4583 1265.61 46.6536 1265.61 54C1265.61 61.3464 1266.69 67.5417 1268.86 72.5859C1271.06 77.6302 1274.14 81.4557 1278.1 84.0625C1282.06 86.6693 1286.7 87.9727 1292.02 87.9727C1297.33 87.9727 1301.97 86.6693 1305.93 84.0625C1309.89 81.4557 1312.95 77.6302 1315.12 72.5859C1317.32 67.5417 1318.42 61.3464 1318.42 54ZM1357 106V2H1378.99V47.8555H1380.36L1417.79 2H1444.14L1405.55 48.5664L1444.6 106H1418.3L1389.81 63.2422L1378.99 76.4453V106H1357ZM1455.59 106V2H1525.67V20.1289H1477.58V44.9102H1522.07V63.0391H1477.58V87.8711H1525.88V106H1455.59ZM1630.14 2V106H1611.15L1565.9 40.543H1565.14V106H1543.15V2H1562.45L1607.34 67.4062H1608.26V2H1630.14Z" fill="#A00030" fill-opacity="0.3"/>
</svg>
