<svg width="70" height="70" viewBox="0 0 70 70" fill="none" xmlns="http://www.w3.org/2000/svg">
<path d="M35.7227 9.11084C30.585 9.11084 25.5627 10.6343 21.2909 13.4887C17.019 16.343 13.6896 20.4 11.7235 25.1466C9.75735 29.8932 9.24293 35.1162 10.2452 40.1552C11.2475 45.1941 13.7216 49.8227 17.3545 53.4556C20.9874 57.0885 25.6159 59.5625 30.6549 60.5648C35.6939 61.5671 40.9169 61.0527 45.6635 59.0866C50.4101 57.1205 54.467 53.791 57.3214 49.5192C60.1757 45.2474 61.6992 40.2251 61.6992 35.0874C61.6934 28.1998 58.9548 21.5959 54.0845 16.7256C49.2142 11.8553 42.6103 9.11663 35.7227 9.11084ZM35.7227 59.4233C30.9095 59.4233 26.2044 57.9961 22.2023 55.322C18.2003 52.6479 15.0811 48.8472 13.2392 44.4004C11.3973 39.9536 10.9153 35.0604 11.8543 30.3397C12.7933 25.619 15.1111 21.2827 18.5146 17.8793C21.918 14.4759 26.2543 12.1581 30.975 11.2191C35.6957 10.2801 40.5888 10.762 45.0356 12.6039C49.4824 14.4459 53.2832 17.5651 55.9573 21.5671C58.6313 25.5691 60.0586 30.2742 60.0586 35.0874C60.0528 41.5399 57.487 47.7265 52.9244 52.2891C48.3618 56.8517 42.1752 59.4175 35.7227 59.4233Z" fill="white"/>
<path d="M35.7227 3.64209C29.5034 3.64209 23.4237 5.48633 18.2526 8.94158C13.0814 12.3968 9.05101 17.3079 6.67099 23.0538C4.29097 28.7997 3.66825 35.1223 4.88157 41.2221C6.09489 47.3219 9.08977 52.9249 13.4875 57.3226C17.8852 61.7203 23.4882 64.7152 29.588 65.9285C35.6878 67.1418 42.0104 66.5191 47.7563 64.1391C53.5021 61.7591 58.4132 57.7286 61.8685 52.5575C65.3237 47.3863 67.168 41.3067 67.168 35.0874C67.1564 26.7511 63.8397 18.7596 57.9451 12.865C52.0504 6.97036 44.0589 3.65366 35.7227 3.64209ZM35.7227 64.8921C29.8279 64.8921 24.0654 63.1441 19.1641 59.8691C14.2627 56.5941 10.4426 51.9393 8.18673 46.4932C5.93088 41.0471 5.34065 35.0543 6.49067 29.2728C7.64069 23.4913 10.4793 18.1806 14.6476 14.0123C18.8158 9.84405 24.1265 7.00542 29.9081 5.8554C35.6896 4.70538 41.6823 5.29561 47.1284 7.55146C52.5745 9.80731 57.2294 13.6274 60.5044 18.5288C63.7793 23.4302 65.5274 29.1926 65.5274 35.0874C65.5187 42.9894 62.3758 50.5653 56.7882 56.1529C51.2006 61.7405 43.6247 64.8834 35.7227 64.8921Z" fill="white"/>
<path d="M50.9114 39.4002C50.9114 38.5279 50.1027 37.7799 48.5619 37.2167C48.6221 37.0636 48.6523 36.9004 48.6506 36.7359V33.8987C48.6545 33.749 48.6312 33.5999 48.5819 33.4585C49.9985 32.9291 50.9006 32.2062 50.908 31.2893V28.4051C50.8725 24.1318 31.739 24.1313 31.7035 28.4051V30.4616C30.3113 29.3744 28.5957 28.7837 26.8293 28.7835C16.2634 29.2179 16.2514 44.2854 26.8293 44.7249C28.6694 44.7264 30.4528 44.088 31.8741 42.9191C32.2879 43.7221 33.4693 44.3426 35.0553 44.7736C37.1002 45.2757 39.1999 45.5193 41.3055 45.4988C43.896 45.4598 50.544 45.1279 50.9063 42.2895C50.9046 42.2529 50.9074 39.4351 50.9114 39.4002ZM49.7644 39.3911C49.7553 39.7305 49.069 40.3166 47.1831 40.8105C43.3975 41.7538 37.5863 41.7921 33.954 40.3069C34.0733 40.0682 34.1805 39.8237 34.2751 39.5742C34.8572 39.6784 35.4485 39.7711 36.0409 39.8238C38.0418 40.0208 40.0572 40.0209 42.0581 39.8243C44.0248 39.6234 46.4184 39.1776 47.8012 38.1702C49.3174 38.655 49.7547 39.1684 49.7644 39.3911ZM35.8583 42.0869C36.4404 42.2128 37.0677 42.3153 37.7236 42.3971V44.1342C37.0966 44.0535 36.4741 43.9413 35.8583 43.7983V42.0869ZM38.8684 42.5162C39.4751 42.5654 40.1001 42.5946 40.7337 42.6066V44.3455C40.0724 44.3332 39.4506 44.3025 38.8684 44.2533V42.5162ZM41.8784 42.6066C42.501 42.596 43.123 42.566 43.7437 42.5167V44.2533C43.1615 44.3018 42.5395 44.3323 41.8778 44.3449L41.8784 42.6066ZM44.8885 42.3977C45.5143 42.3219 46.1364 42.2187 46.7532 42.0886V43.7983C46.1376 43.9413 45.5153 44.0535 44.8885 44.1342V42.3977ZM43.7437 31.5205V33.2616C43.1615 33.3101 42.5395 33.3406 41.8778 33.3532V31.6126C42.5006 31.6015 43.1229 31.5704 43.7437 31.5205ZM47.5076 36.7645C47.4927 36.9934 47.072 37.4891 45.6406 37.9607V36.2717C46.2942 36.0947 46.9216 35.8322 47.5065 35.491C47.5076 35.499 47.503 36.7582 47.5076 36.7645ZM36.611 38.7191V36.9849C37.218 37.0345 37.8396 37.065 38.4757 37.0764V38.813C37.8533 38.8018 37.2314 38.7705 36.611 38.7191ZM34.6088 38.4707C34.7323 37.9163 34.796 37.3502 34.7989 36.7822C35.0198 36.816 35.2419 36.8452 35.4662 36.8738V38.6012C35.1795 38.5639 34.8937 38.5204 34.6088 38.4707ZM39.6204 37.0827C40.2432 37.0723 40.8655 37.0425 41.4863 36.9934V38.7197C40.8655 38.7709 40.2433 38.8021 39.6204 38.813V37.0827ZM42.6311 36.8744C43.2569 36.7985 43.879 36.6954 44.4958 36.5653V38.2738C43.8801 38.4162 43.2575 38.527 42.6305 38.6058L42.6311 36.8744ZM44.8885 33.1426V31.4049C45.5144 31.3277 46.1366 31.2228 46.7532 31.0906V32.8066C46.1376 32.9497 45.5153 33.0618 44.8885 33.1426ZM40.7331 33.3538C40.0722 33.3416 39.4506 33.3108 38.8684 33.2616V31.5205C39.4808 31.5703 40.1052 31.6006 40.7337 31.6121L40.7331 33.3538ZM37.7236 33.1426C37.0966 33.0618 36.4741 32.9497 35.8583 32.8066V31.0906C36.4461 31.2177 37.07 31.3236 37.7236 31.4054V33.1426ZM34.7136 32.4866C33.4916 32.0774 32.8477 31.6109 32.8477 31.2858V30.006C33.4323 30.352 34.0595 30.6203 34.7136 30.8039V32.4866ZM35.057 33.7819C39.1422 34.7542 43.3977 34.7606 47.4859 33.8008C47.4993 33.8282 47.5062 33.8584 47.5059 33.8889C47.4904 34.1923 46.8002 34.8059 44.9257 35.2872C41.5713 36.0444 38.1031 36.1532 34.7078 35.6077C34.6025 34.8734 34.3942 34.1576 34.0891 33.4814C34.389 33.5913 34.717 33.6898 35.057 33.7819ZM47.898 32.4866V30.8039C48.552 30.6203 49.1793 30.352 49.7639 30.006V31.2858C49.7639 31.6109 49.1205 32.0774 47.898 32.4866ZM41.306 26.3349C46.7778 26.3349 49.7633 27.7028 49.7633 28.4051C49.7633 29.1074 46.7784 30.4754 41.306 30.4754C35.8337 30.4754 32.8482 29.1074 32.8482 28.4051C32.8482 27.7028 35.8337 26.3349 41.306 26.3349ZM26.8293 43.5802C25.0196 43.5781 23.2847 42.8582 22.0051 41.5785C20.7255 40.2988 20.0058 38.5639 20.0038 36.7542C20.3787 27.6982 33.2815 27.7017 33.6553 36.7542C33.6532 38.5639 32.9333 40.2989 31.6536 41.5786C30.374 42.8582 28.639 43.5781 26.8293 43.5802ZM32.85 42.2838C32.8505 42.2701 32.8528 41.9736 32.8517 41.9598C33.0354 41.7487 33.2079 41.528 33.3685 41.2988C33.8034 41.4987 34.2531 41.6646 34.7136 41.795V43.4777C33.499 43.0714 32.8574 42.6089 32.85 42.2838ZM47.898 43.4783V41.795C48.5515 41.6182 49.1789 41.3559 49.7639 41.0149V42.2775C49.7639 42.6026 49.1205 43.0691 47.898 43.4783Z" fill="white"/>
<path d="M26.8246 33.562C26.997 33.5616 27.1677 33.5951 27.3271 33.6607C27.4865 33.7263 27.6315 33.8226 27.7536 33.9443C27.8758 34.0659 27.9728 34.2104 28.039 34.3695C28.1053 34.5286 28.1396 34.6992 28.1399 34.8716C28.1399 35.0234 28.2002 35.169 28.3075 35.2763C28.4149 35.3837 28.5604 35.444 28.7122 35.444C28.864 35.444 29.0096 35.3837 29.117 35.2763C29.2243 35.169 29.2846 35.0234 29.2846 34.8716C29.2833 34.3211 29.097 33.787 28.7556 33.3552C28.4141 32.9234 27.9375 32.6188 27.4021 32.4906V31.4718C27.4021 31.32 27.3418 31.1744 27.2345 31.0671C27.1271 30.9597 26.9815 30.8994 26.8297 30.8994C26.6779 30.8994 26.5324 30.9597 26.425 31.0671C26.3177 31.1744 26.2574 31.32 26.2574 31.4718V32.4906C25.673 32.6301 25.1601 32.9793 24.8162 33.472C24.4723 33.9647 24.3214 34.5665 24.392 35.1632C24.4626 35.7599 24.7499 36.3098 25.1993 36.7086C25.6487 37.1074 26.2289 37.3273 26.8297 37.3265C27.0889 37.3264 27.3422 37.4031 27.5578 37.547C27.7733 37.6909 27.9413 37.8955 28.0406 38.1349C28.1398 38.3742 28.1658 38.6377 28.1153 38.8919C28.0649 39.146 27.9401 39.3795 27.7569 39.5628C27.5737 39.7461 27.3403 39.8709 27.0861 39.9215C26.832 39.9721 26.5685 39.9462 26.3291 39.8471C26.0896 39.7479 25.885 39.58 25.741 39.3646C25.597 39.1491 25.5202 38.8958 25.5202 38.6366C25.5202 38.4848 25.4599 38.3392 25.3525 38.2319C25.2452 38.1246 25.0996 38.0643 24.9478 38.0643C24.796 38.0643 24.6504 38.1246 24.5431 38.2319C24.4357 38.3392 24.3754 38.4848 24.3754 38.6366C24.3767 39.187 24.5629 39.7211 24.9043 40.1529C25.2456 40.5847 25.7221 40.8893 26.2574 41.0177V42.0365C26.2574 42.1883 26.3177 42.3338 26.425 42.4412C26.5324 42.5485 26.6779 42.6088 26.8297 42.6088C26.9815 42.6088 27.1271 42.5485 27.2345 42.4412C27.3418 42.3338 27.4021 42.1883 27.4021 42.0365V41.0177C27.9871 40.8787 28.5006 40.5296 28.845 40.0367C29.1893 39.5438 29.3406 38.9416 29.2699 38.3445C29.1992 37.7474 28.9116 37.1971 28.4617 36.7983C28.0118 36.3994 27.431 36.1798 26.8297 36.1812C26.4891 36.1719 26.1655 36.0302 25.9275 35.7862C25.6896 35.5423 25.5561 35.2152 25.5554 34.8744C25.5546 34.5336 25.6867 34.206 25.9235 33.9609C26.1604 33.7159 26.484 33.5728 26.8246 33.562Z" fill="white"/>
</svg>
