<svg width="60" height="60" viewBox="0 0 60 60" fill="none" xmlns="http://www.w3.org/2000/svg">
<path d="M32.9297 45H31.0547V40.3125C31.0547 40.0639 30.9559 39.8254 30.7801 39.6496C30.6043 39.4738 30.3658 39.375 30.1172 39.375H27.3047V35.625H31.0547C31.3033 35.625 31.5418 35.5262 31.7176 35.3504C31.8934 35.1746 31.9922 34.9361 31.9922 34.6875V29.0625C31.9922 28.8139 31.8934 28.5754 31.7176 28.3996C31.5418 28.2238 31.3033 28.125 31.0547 28.125H26.79C31.0116 25.6959 33.8672 21.1481 33.8672 15.9375C33.8672 8.18344 27.5588 1.875 19.8047 1.875C12.0506 1.875 5.74219 8.18344 5.74219 15.9375C5.74219 21.1481 8.59781 25.6959 12.8194 28.125H8.55469C8.30605 28.125 8.06759 28.2238 7.89177 28.3996C7.71596 28.5754 7.61719 28.8139 7.61719 29.0625V33.75H3.86719C3.61855 33.75 3.38009 33.8488 3.20427 34.0246C3.02846 34.2004 2.92969 34.4389 2.92969 34.6875V40.3125C2.92969 40.5611 3.02846 40.7996 3.20427 40.9754C3.38009 41.1512 3.61855 41.25 3.86719 41.25H6.67969V45.9375C6.67969 46.1861 6.77846 46.4246 6.95427 46.6004C7.13009 46.7762 7.36855 46.875 7.61719 46.875H9.49219V50.625H5.74219C5.49355 50.625 5.25509 50.7238 5.07927 50.8996C4.90346 51.0754 4.80469 51.3139 4.80469 51.5625V57.1875C4.80469 57.4361 4.90346 57.6746 5.07927 57.8504C5.25509 58.0262 5.49355 58.125 5.74219 58.125H28.2422C28.4908 58.125 28.7293 58.0262 28.9051 57.8504C29.0809 57.6746 29.1797 57.4361 29.1797 57.1875V52.5H32.9297C33.1783 52.5 33.4168 52.4012 33.5926 52.2254C33.7684 52.0496 33.8672 51.8111 33.8672 51.5625V45.9375C33.8672 45.6889 33.7684 45.4504 33.5926 45.2746C33.4168 45.0988 33.1783 45 32.9297 45ZM29.1797 45H25.4297V41.25H29.1797V45ZM26.3672 50.625H22.6172V46.875H26.3672V50.625ZM21.6797 56.25H17.9297V52.5H21.6797V56.25ZM14.1797 52.5H16.0547V56.25H12.3047V52.5H14.1797ZM12.3047 35.625H14.1797V39.375H10.4297V35.625H12.3047ZM20.7422 33.75V30H24.4922V33.75H20.7422ZM23.5547 45H19.8047V41.25H23.5547V45ZM19.8047 39.375H16.0547V35.625H19.8047V39.375ZM18.8672 30V33.75H15.1172V30H18.8672ZM17.9297 41.25V45H14.1797V41.25H17.9297ZM18.8672 46.875H20.7422V50.625H16.9922V46.875H18.8672ZM25.4297 39.375H21.6797V35.625H25.4297V39.375ZM30.1172 33.75H26.3672V30H30.1172V33.75ZM7.61719 15.9375C7.61719 9.2175 13.0847 3.75 19.8047 3.75C26.5247 3.75 31.9922 9.2175 31.9922 15.9375C31.9922 22.6575 26.5247 28.125 19.8047 28.125C13.0847 28.125 7.61719 22.6575 7.61719 15.9375ZM9.49219 30H13.2422V33.75H9.49219V30ZM4.80469 35.625H8.55469V39.375H4.80469V35.625ZM8.55469 41.25H12.3047V45H8.55469V41.25ZM11.3672 46.875H15.1172V50.625H11.3672V46.875ZM6.67969 52.5H10.4297V56.25H6.67969V52.5ZM27.3047 56.25H23.5547V52.5H27.3047V56.25ZM31.9922 50.625H28.2422V46.875H31.9922V50.625ZM19.8047 4.6875C13.6012 4.6875 8.55469 9.73406 8.55469 15.9375C8.55469 22.1409 13.6012 27.1875 19.8047 27.1875C26.0081 27.1875 31.0547 22.1409 31.0547 15.9375C31.0547 9.73406 26.0081 4.6875 19.8047 4.6875ZM19.8047 25.3125C14.6353 25.3125 10.4297 21.1069 10.4297 15.9375C10.4297 10.7681 14.6353 6.5625 19.8047 6.5625C24.9741 6.5625 29.1797 10.7681 29.1797 15.9375C29.1797 21.1069 24.9741 25.3125 19.8047 25.3125ZM21.6797 13.125H23.5547C23.5547 11.3822 22.3547 9.92813 20.7422 9.50813V8.4375H18.8672V9.50813C17.2547 9.92719 16.0547 11.3831 16.0547 13.125C16.0547 14.8669 17.2547 16.3219 18.8672 16.7419V20.3644C18.3094 20.0391 17.9297 19.4409 17.9297 18.75H16.0547C16.0547 20.4928 17.2547 21.9469 18.8672 22.3669V23.4375H20.7422V22.3669C22.3547 21.9478 23.5547 20.4919 23.5547 18.75C23.5547 17.0081 22.3547 15.5531 20.7422 15.1331V11.5106C21.3 11.8359 21.6797 12.4341 21.6797 13.125ZM17.9297 13.125C17.9297 12.4341 18.3094 11.8359 18.8672 11.5106V14.7394C18.3094 14.4141 17.9297 13.8159 17.9297 13.125ZM21.6797 18.75C21.6797 19.4409 21.3 20.0391 20.7422 20.3644V17.1356C21.3 17.4609 21.6797 18.0591 21.6797 18.75Z" fill="white"/>
<path d="M38.3994 47.8594L46.497 57.6328C46.7549 57.9492 47.1416 58.125 47.5517 58.125C47.9619 58.125 48.3486 57.9492 48.6064 57.6328L56.7041 47.8594C57.1845 47.2734 57.1025 46.418 56.5283 45.9375C55.9423 45.457 55.0869 45.5391 54.6064 46.1133L48.9228 52.9688L48.9228 6.76172C48.9228 6.01172 48.3134 5.39063 47.5517 5.39063C46.8017 5.39063 46.1806 6 46.1806 6.76172L46.1806 52.9688L40.497 46.1133C40.2275 45.7852 39.8408 45.6211 39.4424 45.6211C39.1377 45.6211 38.8213 45.7266 38.5752 45.9375C38.0009 46.418 37.9189 47.2852 38.3994 47.8594Z" fill="white"/>
</svg>
