<svg width="70" height="70" viewBox="0 0 70 70" fill="none" xmlns="http://www.w3.org/2000/svg">
<path d="M63.7245 47.0947C72.9426 23.5266 47.5107 1.55098 25.5307 14.116C24.9329 11.8117 23.5869 9.77126 21.7039 8.31485C19.8209 6.85844 17.5075 6.06858 15.127 6.06926C7.06168 5.85489 1.60386 15.2961 5.82683 22.1769L12.2854 33.3638C12.6704 34.206 12.0503 36.0489 12.2067 37.2214C12.1986 40.603 12.8433 43.9543 14.1054 47.0914C22.827 69.4127 55.0007 69.4171 63.7245 47.0947ZM51.4143 45.64C52.2689 40.0609 52.2689 34.3842 51.4143 28.805H61.9187C63.9348 34.236 63.9348 40.2102 61.9187 45.6411L51.4143 45.64ZM38.915 61.7444C34.6603 61.7444 30.8803 55.9825 29.0767 47.8297H48.7532C46.9496 55.9814 43.1696 61.7422 38.915 61.7422V61.7444ZM28.6501 45.6422C27.733 40.0677 27.733 34.3807 28.6501 28.8061H49.1798C50.0969 34.3807 50.0969 40.0677 49.1798 45.6422H28.6501ZM15.9134 45.6422C14.9092 42.9486 14.3947 40.0972 14.3942 37.2225C14.5473 36.084 14.0606 34.6304 15.127 35.0055C15.7038 35.0091 16.2712 34.8589 16.7708 34.5706C17.2704 34.2823 17.6842 33.8661 17.9696 33.3649L20.6012 28.8061H26.4145C25.5599 34.3853 25.5599 40.062 26.4145 45.6411L15.9134 45.6422ZM38.915 12.7018C43.1696 12.7018 46.9507 18.4647 48.7543 26.6186H29.0767C30.8792 18.4647 34.6603 12.7018 38.915 12.7018ZM61.0131 26.6186H51.0184C49.8339 20.9125 47.7109 16.2838 45.0203 13.4772C48.4884 14.3567 51.7199 15.9904 54.4842 18.2619C57.2486 20.5334 59.4779 23.3868 61.0131 26.6186ZM32.7987 13.486C30.1136 16.2947 27.9939 20.918 26.8115 26.6164H21.8634L24.4271 22.1758C25.4288 20.4471 25.9256 18.4721 25.8611 16.4752C28.0043 15.1244 30.3449 14.1159 32.7987 13.486ZM7.7223 21.0832C4.34152 15.6647 8.74277 8.0391 15.1259 8.25785C21.5101 8.04129 25.9136 15.6625 22.5306 21.0843L16.0731 32.2711C15.9787 32.4388 15.8409 32.578 15.6743 32.6742C15.5077 32.7704 15.3183 32.82 15.1259 32.818C14.9353 32.8119 14.7492 32.7588 14.5842 32.6634C14.4191 32.568 14.2802 32.4332 14.1798 32.2711L7.7223 21.0832ZM16.819 47.8286H26.8126C27.9961 53.5336 30.1201 58.1613 32.8096 60.9689C29.342 60.0894 26.111 58.4557 23.347 56.1844C20.583 53.9131 18.3541 51.0601 16.819 47.8286ZM45.0203 60.9689C47.7109 58.1613 49.8339 53.5336 51.0184 47.8286H61.012C59.4768 51.0601 57.2476 53.9132 54.4835 56.1845C51.7193 58.4558 48.4881 60.0895 45.0203 60.9689Z" fill="white"/>
<path d="M11.4766 11.9537C11.1865 11.9537 10.9083 12.069 10.7032 12.2741C10.498 12.4792 10.3828 12.7574 10.3828 13.0475V20.8437C10.3828 21.1338 10.498 21.412 10.7032 21.6171C10.9083 21.8222 11.1865 21.9375 11.4766 21.9375C11.7666 21.9375 12.0448 21.8222 12.25 21.6171C12.4551 21.412 12.5703 21.1338 12.5703 20.8437V13.0475C12.5703 12.7574 12.4551 12.4792 12.25 12.2741C12.0448 12.069 11.7666 11.9537 11.4766 11.9537ZM15.3758 21.9375C15.6659 21.9375 15.9441 21.8222 16.1492 21.6171C16.3543 21.412 16.4695 21.1338 16.4695 20.8437V18.0393H18.2589C18.6815 18.0373 19.0991 17.9477 19.4852 17.7761C19.8714 17.6045 20.2178 17.3547 20.5025 17.0424C20.7872 16.7302 21.0041 16.3622 21.1394 15.9619C21.2747 15.5616 21.3255 15.1375 21.2886 14.7165C21.197 13.9469 20.8234 13.2386 20.24 12.7283C19.6566 12.218 18.9048 11.9421 18.1298 11.9537H16.3492C15.801 11.9546 15.2756 12.1728 14.8881 12.5605C14.5006 12.9483 14.2826 13.4738 14.282 14.022V20.8437C14.282 21.1338 14.3973 21.412 14.6024 21.6171C14.8075 21.8222 15.0857 21.9375 15.3758 21.9375ZM16.4695 14.1412C17.2209 14.2123 18.9819 13.8054 19.1109 14.9112C19.121 15.0299 19.1065 15.1493 19.0685 15.2621C19.0304 15.3749 18.9695 15.4786 18.8895 15.5669C18.8096 15.6551 18.7124 15.726 18.6039 15.775C18.4954 15.824 18.378 15.8502 18.2589 15.8518H16.4695V14.1412Z" fill="white"/>
</svg>
