<svg width="15" height="15" viewBox="0 0 15 15" fill="none" xmlns="http://www.w3.org/2000/svg">
<g clip-path="url(#clip0_277_111)">
<path d="M8.2 15H6.8C6.57111 14.9998 6.35022 14.9157 6.17909 14.7637C6.00796 14.6117 5.89845 14.4023 5.87125 14.175L5.72187 13.0025C5.42673 12.9067 5.13959 12.7878 4.86312 12.6469L3.92938 13.3725C3.74908 13.5142 3.52289 13.5845 3.29403 13.57C3.06516 13.5555 2.84968 13.4571 2.68875 13.2938L1.70438 12.3094C1.54188 12.1486 1.44429 11.9336 1.43023 11.7055C1.41616 11.4773 1.48661 11.252 1.62812 11.0725L2.35375 10.1381C2.21231 9.8619 2.09338 9.57472 1.99813 9.27938L0.823125 9.13C0.59614 9.10196 0.387216 8.99197 0.235634 8.82071C0.0840526 8.64945 0.000255925 8.42871 0 8.2L0 6.8C0 6.32688 0.354375 5.9275 0.825 5.87125L1.9975 5.72187C2.0933 5.42673 2.21221 5.13959 2.35313 4.86312L1.62812 3.92938C1.48604 3.74907 1.41556 3.52264 1.43021 3.29356C1.44486 3.06447 1.54361 2.84886 1.7075 2.68813L2.69187 1.70375C2.85271 1.54138 3.06767 1.44388 3.29578 1.42981C3.52388 1.41575 3.74919 1.48612 3.92875 1.6275L4.8625 2.35375C5.13913 2.21272 5.42648 2.09381 5.72187 1.99813L5.87125 0.823125C5.9275 0.354375 6.32688 0 6.8 0H8.2C8.67313 0 9.0725 0.354375 9.12875 0.825L9.27812 1.9975C9.57687 2.09438 9.86437 2.21375 10.1375 2.35313L11.0713 1.6275C11.2515 1.48559 11.4778 1.41522 11.7067 1.42987C11.9357 1.44451 12.1512 1.54315 12.3119 1.70687L13.2963 2.69125C13.6319 3.01688 13.6656 3.55 13.3725 3.92812L12.6469 4.8625C12.7869 5.13563 12.9063 5.42313 13.0025 5.72125L14.1775 5.87062C14.4043 5.89866 14.6131 6.00858 14.7645 6.17973C14.916 6.35088 14.9997 6.57146 15 6.8V8.2C15 8.67313 14.6456 9.0725 14.175 9.12875L13.0025 9.27812C12.9067 9.57327 12.7878 9.86041 12.6469 10.1369L13.3725 11.0706C13.5144 11.2509 13.5848 11.4772 13.5701 11.7061C13.5555 11.9351 13.4568 12.1505 13.2931 12.3112L12.3088 13.2956C12.1481 13.4582 11.9331 13.5559 11.7049 13.57C11.4767 13.5841 11.2513 13.5135 11.0719 13.3719L10.1375 12.6462C9.86128 12.7877 9.5741 12.9066 9.27875 13.0019L9.12938 14.1769C9.10148 14.4038 8.99162 14.6127 8.82046 14.7643C8.6493 14.9159 8.42864 14.9997 8.2 15ZM4.83125 11.9625C4.88312 11.9625 4.93625 11.9756 4.98375 12.0019C5.33451 12.1971 5.70653 12.3515 6.0925 12.4619C6.15117 12.4787 6.20363 12.5124 6.2434 12.5587C6.28316 12.605 6.30849 12.662 6.31625 12.7225L6.49125 14.0975C6.51 14.2544 6.64563 14.375 6.8 14.375H8.2C8.27577 14.374 8.34864 14.3457 8.40523 14.2953C8.46183 14.2449 8.49836 14.1758 8.50813 14.1006L8.68375 12.7231C8.69151 12.6626 8.71684 12.6056 8.75661 12.5593C8.79637 12.513 8.84883 12.4793 8.9075 12.4625C9.29347 12.3521 9.66549 12.1978 10.0162 12.0025C10.0698 11.9726 10.1309 11.9591 10.1921 11.9638C10.2532 11.9685 10.3116 11.9911 10.36 12.0288L11.4538 12.8788C11.5127 12.9262 11.587 12.9502 11.6625 12.9463C11.738 12.9424 11.8094 12.9108 11.8631 12.8575L12.8538 11.8669C12.9079 11.8132 12.9404 11.7414 12.9449 11.6653C12.9494 11.5892 12.9256 11.514 12.8781 11.4544L12.0281 10.3606C11.9905 10.3122 11.968 10.2538 11.9633 10.1927C11.9586 10.1316 11.9721 10.0704 12.0019 10.0169C12.1971 9.66611 12.3515 9.29409 12.4619 8.90812C12.4787 8.84945 12.5124 8.79699 12.5587 8.75723C12.605 8.71747 12.662 8.69214 12.7225 8.68438L14.0975 8.50937C14.1733 8.4999 14.2431 8.46338 14.2941 8.40653C14.345 8.34969 14.3738 8.27635 14.375 8.2V6.8C14.374 6.72423 14.3457 6.65136 14.2953 6.59477C14.2449 6.53817 14.1758 6.50164 14.1006 6.49188L12.7231 6.31625C12.6626 6.30849 12.6056 6.28316 12.5593 6.2434C12.513 6.20363 12.4793 6.15117 12.4625 6.0925C12.3521 5.70653 12.1978 5.33451 12.0025 4.98375C11.9724 4.93026 11.9589 4.86908 11.9636 4.8079C11.9682 4.74672 11.9909 4.6883 12.0288 4.64L12.8788 3.54625C12.9263 3.48757 12.9506 3.41338 12.9467 3.33792C12.9429 3.26247 12.9114 3.19109 12.8581 3.1375L11.8675 2.14687C11.8141 2.0923 11.7422 2.05958 11.666 2.05507C11.5897 2.05057 11.5145 2.0746 11.455 2.1225L10.3612 2.9725C10.3128 3.01024 10.2543 3.03285 10.193 3.03752C10.1318 3.04219 10.0705 3.0287 10.0169 2.99875C9.66619 2.80333 9.29416 2.64897 8.90812 2.53875C8.84945 2.52191 8.79699 2.48825 8.75723 2.44194C8.71747 2.39562 8.69214 2.33867 8.68438 2.27813L8.50937 0.903125C8.50004 0.827244 8.46358 0.757297 8.40672 0.706184C8.34986 0.65507 8.27644 0.626237 8.2 0.625H6.8C6.72423 0.626022 6.65136 0.654326 6.59477 0.704722C6.53817 0.755117 6.50164 0.824226 6.49188 0.899375L6.31625 2.27688C6.30845 2.33748 6.28311 2.39449 6.24337 2.44089C6.20362 2.4873 6.15118 2.5211 6.0925 2.53813C5.70649 2.64813 5.33445 2.80228 4.98375 2.9975C4.93018 3.02754 4.86895 3.04113 4.8077 3.03658C4.74645 3.03202 4.68791 3.00951 4.63937 2.97188L3.54562 2.12188C3.48695 2.07429 3.41275 2.05008 3.3373 2.05388C3.26185 2.05769 3.19047 2.08925 3.13688 2.1425L2.14625 3.13375C2.09206 3.18741 2.0596 3.2592 2.0551 3.33533C2.0506 3.41147 2.07438 3.48658 2.12188 3.54625L2.97188 4.64C3.00948 4.68841 3.03202 4.74681 3.03669 4.80793C3.04136 4.86905 3.02795 4.93019 2.99813 4.98375C2.80261 5.33439 2.64825 5.70644 2.53813 6.0925C2.52128 6.15117 2.48763 6.20363 2.44131 6.2434C2.395 6.28316 2.33805 6.30849 2.2775 6.31625L0.9025 6.49125C0.826732 6.50046 0.756869 6.53682 0.705848 6.59358C0.654827 6.65035 0.626105 6.72368 0.625 6.8V8.2C0.625 8.35437 0.745625 8.49 0.899375 8.50813L2.27688 8.68375C2.33742 8.69151 2.39437 8.71684 2.44069 8.75661C2.487 8.79637 2.52066 8.84883 2.5375 8.9075C2.65 9.29875 2.805 9.67187 2.9975 10.0162C3.02756 10.0697 3.04111 10.1309 3.03644 10.1921C3.03177 10.2533 3.00909 10.3117 2.97125 10.36L2.12125 11.4538C2.07367 11.5124 2.04945 11.5866 2.05326 11.6621C2.05706 11.7375 2.08863 11.8089 2.14188 11.8625L3.1325 12.8531C3.18609 12.9074 3.2579 12.94 3.33407 12.9445C3.41024 12.949 3.48538 12.9251 3.545 12.8775L4.63875 12.0275C4.69422 11.9856 4.76175 11.9628 4.83125 11.9625Z" fill="#DC052D"/>
<path d="M7.5 10.625C5.77688 10.625 4.375 9.22313 4.375 7.5C4.375 5.77688 5.77688 4.375 7.5 4.375C9.22313 4.375 10.625 5.77688 10.625 7.5C10.625 9.22313 9.22313 10.625 7.5 10.625ZM7.5 5C6.12125 5 5 6.12125 5 7.5C5 8.87875 6.12125 10 7.5 10C8.87875 10 10 8.87875 10 7.5C10 6.12125 8.87875 5 7.5 5Z" fill="#DC052D"/>
</g>
<defs>
<clipPath id="clip0_277_111">
<rect width="15" height="15" fill="white"/>
</clipPath>
</defs>
</svg>
