<svg width="70" height="70" viewBox="0 0 70 70" fill="none" xmlns="http://www.w3.org/2000/svg">
<path d="M35.7227 9.11084C30.585 9.11084 25.5627 10.6343 21.2909 13.4887C17.019 16.343 13.6896 20.4 11.7235 25.1466C9.75735 29.8932 9.24293 35.1162 10.2452 40.1552C11.2475 45.1941 13.7216 49.8227 17.3545 53.4556C20.9874 57.0885 25.6159 59.5625 30.6549 60.5648C35.6939 61.5671 40.9169 61.0527 45.6635 59.0866C50.4101 57.1205 54.467 53.791 57.3214 49.5192C60.1757 45.2474 61.6992 40.2251 61.6992 35.0874C61.6934 28.1998 58.9548 21.5959 54.0845 16.7256C49.2142 11.8553 42.6103 9.11663 35.7227 9.11084ZM35.7227 59.4233C30.9095 59.4233 26.2044 57.9961 22.2023 55.322C18.2003 52.6479 15.0811 48.8472 13.2392 44.4004C11.3973 39.9536 10.9153 35.0604 11.8543 30.3397C12.7933 25.619 15.1111 21.2827 18.5146 17.8793C21.918 14.4759 26.2543 12.1581 30.975 11.2191C35.6957 10.2801 40.5888 10.762 45.0356 12.6039C49.4824 14.4459 53.2832 17.5651 55.9573 21.5671C58.6313 25.5691 60.0586 30.2742 60.0586 35.0874C60.0528 41.5399 57.487 47.7265 52.9244 52.2891C48.3618 56.8517 42.1752 59.4175 35.7227 59.4233Z" fill="white"/>
<path d="M36 19C31.3682 19 27.6 22.7851 27.6 27.4375C27.6 32.0899 31.3682 35.875 36 35.875C40.6318 35.875 44.4 32.0899 44.4 27.4375C44.4 22.7851 40.6318 19 36 19ZM36 34C32.3975 34 29.4667 31.0561 29.4667 27.4375C29.4667 23.8189 32.3975 20.875 36 20.875C39.6025 20.875 42.5333 23.8189 42.5333 27.4375C42.5333 31.0561 39.6025 34 36 34ZM46.4512 41.3872C44.1515 39.0417 41.1028 37.75 37.8667 37.75H34.1333C30.8973 37.75 27.8485 39.0417 25.5488 41.3872C23.2603 43.7212 22 46.8021 22 50.0625C22 50.5802 22.4179 51 22.9333 51H49.0667C49.5821 51 50 50.5802 50 50.0625C50 46.8021 48.7397 43.7212 46.4512 41.3872ZM23.9077 49.125C24.3753 43.8071 28.7829 39.625 34.1333 39.625H37.8667C43.2171 39.625 47.6247 43.8071 48.0923 49.125H23.9077Z" fill="white"/>
<path d="M35.7227 3.64209C29.5034 3.64209 23.4237 5.48633 18.2526 8.94158C13.0814 12.3968 9.05101 17.3079 6.67099 23.0538C4.29097 28.7997 3.66825 35.1223 4.88157 41.2221C6.0949 47.3219 9.08977 52.9249 13.4875 57.3226C17.8852 61.7203 23.4882 64.7152 29.588 65.9285C35.6878 67.1418 42.0104 66.5191 47.7563 64.1391C53.5021 61.7591 58.4132 57.7286 61.8685 52.5575C65.3237 47.3863 67.168 41.3067 67.168 35.0874C67.1564 26.7511 63.8397 18.7596 57.9451 12.865C52.0504 6.97036 44.0589 3.65366 35.7227 3.64209ZM35.7227 64.8921C29.8279 64.8921 24.0654 63.1441 19.1641 59.8691C14.2627 56.5941 10.4426 51.9393 8.18673 46.4932C5.93088 41.0471 5.34065 35.0543 6.49067 29.2728C7.64069 23.4913 10.4793 18.1806 14.6476 14.0123C18.8158 9.84405 24.1265 7.00542 29.9081 5.8554C35.6896 4.70538 41.6823 5.29562 47.1284 7.55146C52.5745 9.80731 57.2294 13.6275 60.5044 18.5288C63.7793 23.4302 65.5274 29.1926 65.5274 35.0874C65.5187 42.9894 62.3758 50.5653 56.7882 56.1529C51.2006 61.7405 43.6247 64.8834 35.7227 64.8921Z" fill="white"/>
</svg>
