<svg width="30" height="30" viewBox="0 0 30 30" fill="none" xmlns="http://www.w3.org/2000/svg">
<path d="M15 0C6.72535 0 0 6.72535 0 15C0 23.2746 6.72535 30 15 30C23.2746 30 30 23.2746 30 15C30 6.72535 23.2746 0 15 0ZM15 28.4859C7.57042 28.4859 1.51408 22.4296 1.51408 15C1.51408 7.57042 7.57042 1.51408 15 1.51408C22.4296 1.51408 28.4859 7.57042 28.4859 15C28.4859 22.4296 22.4296 28.4859 15 28.4859Z" fill="#6B6B6B"/>
<path d="M16.0554 14.9295L20.4568 10.5281C20.7385 10.2464 20.7385 9.75346 20.4568 9.47177C20.1752 9.19008 19.6822 9.19008 19.4005 9.47177L14.9991 13.8732L10.5977 9.47177C10.316 9.19008 9.82304 9.19008 9.54135 9.47177C9.25966 9.75346 9.25966 10.2464 9.54135 10.5281L13.9428 14.9295L9.54135 19.2957C9.25966 19.5774 9.25966 20.0704 9.54135 20.352C9.68219 20.4929 9.89346 20.5633 10.0695 20.5633C10.2456 20.5633 10.4568 20.4929 10.5977 20.352L14.9991 15.9506L19.4005 20.352C19.5413 20.4929 19.7526 20.5633 19.9287 20.5633C20.1047 20.5633 20.316 20.4929 20.4568 20.352C20.7385 20.0704 20.7385 19.5774 20.4568 19.2957L16.0554 14.9295Z" fill="#6B6B6B"/>
</svg>
