<svg width="50" height="50" viewBox="0 0 50 50" fill="none" xmlns="http://www.w3.org/2000/svg">
<path d="M7.32107 42.6789C12.045 47.4029 18.3231 50 25 50C31.6769 50 37.955 47.4029 42.6789 42.6789C47.4029 37.955 50 31.6769 50 25C50 18.3231 47.4029 12.045 42.6789 7.32106C37.955 2.59714 31.6769 -8.34465e-07 25 -8.34465e-07C18.3231 -8.34465e-07 12.045 2.59714 7.32107 7.32106C2.59714 12.045 2.98023e-06 18.3231 2.98023e-06 25C2.98023e-06 31.6769 2.59714 37.955 7.32107 42.6789ZM25 2.76074C37.2597 2.76074 47.2393 12.7403 47.2393 25C47.2393 37.2597 37.2597 47.2393 25 47.2393C12.7403 47.2393 2.76074 37.2597 2.76074 25C2.76074 12.7403 12.7403 2.76074 25 2.76074Z" fill="#DC052D"/>
<path d="M25.8593 32.6993C26.4013 33.2412 27.2704 33.2412 27.8123 32.6993C28.3542 32.1573 28.3542 31.2882 27.8123 30.7463L22.0659 24.9999L27.8123 19.2535C28.3542 18.7115 28.3542 17.8424 27.8123 17.3005C27.5465 17.0347 27.1886 16.8915 26.8409 16.8915C26.4933 16.8915 26.1354 17.0244 25.8696 17.3005L19.1518 24.0183C18.6099 24.5602 18.6099 25.4293 19.1518 25.9713L25.8593 32.6993Z" fill="#DC052D"/>
</svg>
