<svg width="50" height="50" viewBox="0 0 50 50" fill="none" xmlns="http://www.w3.org/2000/svg">
<path d="M42.6789 7.32106C37.955 2.59714 31.6769 0 25 0C18.3231 0 12.045 2.59714 7.32106 7.32106C2.59714 12.045 0 18.3231 0 25C0 31.6769 2.59714 37.955 7.32106 42.6789C12.045 47.4029 18.3231 50 25 50C31.6769 50 37.955 47.4029 42.6789 42.6789C47.4029 37.955 50 31.6769 50 25C50 18.3231 47.4029 12.045 42.6789 7.32106ZM25 47.2393C12.7403 47.2393 2.76074 37.2597 2.76074 25C2.76074 12.7403 12.7403 2.76074 25 2.76074C37.2597 2.76074 47.2393 12.7403 47.2393 25C47.2393 37.2597 37.2597 47.2393 25 47.2393Z" fill="#DC052D"/>
<path d="M24.1407 17.3007C23.5987 16.7588 22.7296 16.7588 22.1877 17.3007C21.6458 17.8427 21.6458 18.7118 22.1877 19.2537L27.9341 25.0001L22.1877 30.7465C21.6458 31.2885 21.6458 32.1576 22.1877 32.6995C22.4535 32.9653 22.8114 33.1085 23.1591 33.1085C23.5067 33.1085 23.8646 32.9756 24.1304 32.6995L30.8482 25.9817C31.3901 25.4398 31.3901 24.5707 30.8482 24.0287L24.1407 17.3007Z" fill="#DC052D"/>
</svg>
