<svg width="12" height="19" viewBox="0 0 12 19" fill="none" xmlns="http://www.w3.org/2000/svg">
<path d="M3.03409 3.19318V0.636363H4.19886V3.19318H3.03409ZM5.70455 3.19318V0.636363H6.86932V3.19318H5.70455ZM3.03409 18.8182V16.2614H4.19886V18.8182H3.03409ZM5.70455 18.8182V16.2614H6.86932V18.8182H5.70455ZM0.434659 17V2.45455H6.00284C7.05398 2.45455 7.92756 2.62026 8.62358 2.9517C9.32434 3.27841 9.84754 3.72585 10.1932 4.29403C10.5436 4.86222 10.7188 5.50616 10.7188 6.22585C10.7188 6.81771 10.6051 7.32434 10.3778 7.74574C10.1506 8.1624 9.84517 8.50095 9.46165 8.76136C9.07812 9.02178 8.64962 9.20881 8.17614 9.32244V9.46449C8.69224 9.4929 9.18703 9.65151 9.66051 9.94034C10.1387 10.2244 10.5294 10.6269 10.8324 11.1477C11.1354 11.6686 11.2869 12.2983 11.2869 13.0369C11.2869 13.7898 11.1046 14.4669 10.7401 15.0682C10.3755 15.6648 9.82623 16.1359 9.09233 16.4815C8.35843 16.8272 7.43513 17 6.32244 17H0.434659ZM3.0696 14.7983H5.90341C6.85985 14.7983 7.54877 14.616 7.97017 14.2514C8.39631 13.8821 8.60938 13.4086 8.60938 12.831C8.60938 12.4001 8.50284 12.0118 8.28977 11.6662C8.0767 11.3158 7.77367 11.0412 7.38068 10.8423C6.98769 10.6387 6.51894 10.5369 5.97443 10.5369H3.0696V14.7983ZM3.0696 8.64062H5.67614C6.13068 8.64062 6.54025 8.55777 6.90483 8.39205C7.26941 8.22159 7.55587 7.98248 7.7642 7.67472C7.97727 7.36222 8.08381 6.9929 8.08381 6.56676C8.08381 6.00331 7.88494 5.5393 7.48722 5.17472C7.09422 4.81013 6.50947 4.62784 5.73295 4.62784H3.0696V8.64062Z" fill="white"/>
</svg>
