<svg width="70" height="70" viewBox="0 0 70 70" fill="none" xmlns="http://www.w3.org/2000/svg">
<path d="M35.7227 9.11084C30.585 9.11084 25.5627 10.6343 21.2909 13.4887C17.019 16.343 13.6896 20.4 11.7235 25.1466C9.75735 29.8932 9.24293 35.1162 10.2452 40.1552C11.2475 45.1941 13.7216 49.8227 17.3545 53.4556C20.9874 57.0885 25.6159 59.5625 30.6549 60.5648C35.6939 61.5671 40.9169 61.0527 45.6635 59.0866C50.4101 57.1205 54.467 53.791 57.3214 49.5192C60.1757 45.2474 61.6992 40.2251 61.6992 35.0874C61.6934 28.1998 58.9548 21.5959 54.0845 16.7256C49.2142 11.8553 42.6103 9.11663 35.7227 9.11084ZM35.7227 59.4233C30.9095 59.4233 26.2044 57.9961 22.2023 55.322C18.2003 52.6479 15.0811 48.8472 13.2392 44.4004C11.3973 39.9536 10.9153 35.0604 11.8543 30.3397C12.7933 25.619 15.1111 21.2827 18.5146 17.8793C21.918 14.4759 26.2543 12.1581 30.975 11.2191C35.6957 10.2801 40.5888 10.762 45.0356 12.6039C49.4824 14.4459 53.2832 17.5651 55.9573 21.5671C58.6313 25.5691 60.0586 30.2742 60.0586 35.0874C60.0528 41.5399 57.487 47.7265 52.9244 52.2891C48.3618 56.8517 42.1752 59.4175 35.7227 59.4233Z" fill="white"/>
<path d="M35.7227 3.64209C29.5034 3.64209 23.4237 5.48633 18.2526 8.94158C13.0814 12.3968 9.05101 17.3079 6.67099 23.0538C4.29097 28.7997 3.66825 35.1223 4.88157 41.2221C6.0949 47.3219 9.08977 52.9249 13.4875 57.3226C17.8852 61.7203 23.4882 64.7152 29.588 65.9285C35.6878 67.1418 42.0104 66.5191 47.7563 64.1391C53.5021 61.7591 58.4132 57.7286 61.8685 52.5575C65.3237 47.3863 67.168 41.3067 67.168 35.0874C67.1564 26.7511 63.8397 18.7596 57.9451 12.865C52.0504 6.97036 44.0589 3.65366 35.7227 3.64209ZM35.7227 64.8921C29.8279 64.8921 24.0654 63.1441 19.1641 59.8691C14.2627 56.5941 10.4426 51.9393 8.18673 46.4932C5.93088 41.0471 5.34065 35.0543 6.49067 29.2728C7.64069 23.4913 10.4793 18.1806 14.6476 14.0123C18.8158 9.84405 24.1265 7.00542 29.9081 5.8554C35.6896 4.70538 41.6823 5.29562 47.1284 7.55146C52.5745 9.80731 57.2294 13.6275 60.5044 18.5288C63.7793 23.4302 65.5274 29.1926 65.5274 35.0874C65.5187 42.9894 62.3758 50.5653 56.7882 56.1529C51.2006 61.7405 43.6247 64.8834 35.7227 64.8921Z" fill="white"/>
<path d="M33.6932 48.7273V21.4545H35.4403V48.7273H33.6932ZM39.5739 29.6364C39.446 28.5568 38.9276 27.7188 38.0185 27.1222C37.1094 26.5256 35.9943 26.2273 34.6733 26.2273C33.7074 26.2273 32.8622 26.3835 32.1378 26.696C31.4205 27.0085 30.8594 27.4382 30.4545 27.9851C30.0568 28.532 29.858 29.1534 29.858 29.8494C29.858 30.4318 29.9964 30.9325 30.2734 31.3516C30.5575 31.7635 30.9197 32.108 31.3601 32.3849C31.8004 32.6548 32.2621 32.8786 32.745 33.0561C33.228 33.2266 33.6719 33.3651 34.0767 33.4716L36.2926 34.0682C36.8608 34.2173 37.4929 34.4233 38.1889 34.6861C38.892 34.9489 39.5632 35.3075 40.2024 35.7621C40.8487 36.2095 41.3814 36.7848 41.8004 37.4879C42.2195 38.1911 42.429 39.054 42.429 40.0767C42.429 41.2557 42.12 42.321 41.5021 43.2727C40.8913 44.2244 39.9964 44.9808 38.8175 45.5419C37.6456 46.103 36.2216 46.3835 34.5455 46.3835C32.983 46.3835 31.63 46.1314 30.4865 45.6271C29.3501 45.1229 28.4553 44.4197 27.8018 43.5178C27.1555 42.6158 26.7898 41.5682 26.7045 40.375H29.4318C29.5028 41.1989 29.7798 41.8807 30.2628 42.4205C30.7528 42.9531 31.3707 43.3509 32.1165 43.6136C32.8693 43.8693 33.679 43.9972 34.5455 43.9972C35.554 43.9972 36.4595 43.8338 37.2621 43.5071C38.0646 43.1733 38.7003 42.7116 39.169 42.1222C39.6378 41.5256 39.8722 40.8295 39.8722 40.0341C39.8722 39.3097 39.6697 38.7202 39.2649 38.2656C38.8601 37.8111 38.3274 37.4418 37.6669 37.1577C37.0064 36.8736 36.2926 36.625 35.5256 36.4119L32.8409 35.6449C31.1364 35.1548 29.7869 34.4553 28.7926 33.5462C27.7983 32.6371 27.3011 31.4474 27.3011 29.9773C27.3011 28.7557 27.6314 27.6903 28.2919 26.7812C28.9595 25.8651 29.8544 25.1548 30.9766 24.6506C32.1058 24.1392 33.3665 23.8835 34.7585 23.8835C36.1648 23.8835 37.4148 24.1357 38.5085 24.6399C39.6023 25.1371 40.4688 25.8189 41.108 26.6854C41.7543 27.5518 42.0952 28.5355 42.1307 29.6364H39.5739Z" fill="white"/>
</svg>
