<svg width="25" height="25" viewBox="0 0 25 25" fill="none" xmlns="http://www.w3.org/2000/svg">
<path d="M18.6071 0.285645H6.39285C3.03422 0.285645 0.285706 3.03416 0.285706 6.39279V18.6077C0.285706 21.9654 3.03422 24.7148 6.39285 24.7148H18.6071C21.9658 24.7148 24.7143 21.9654 24.7143 18.6077V6.39279C24.7143 3.03416 21.9658 0.285645 18.6071 0.285645ZM22.6785 18.6077C22.6785 20.852 20.8528 22.679 18.6071 22.679H6.39285C4.14817 22.679 2.32152 20.852 2.32152 18.6077V6.39279C2.32152 4.14781 4.14817 2.32146 6.39285 2.32146H18.6071C20.8528 2.32146 22.6785 4.14781 22.6785 6.39279V18.6077Z" fill="white"/>
<path d="M19.1169 7.4105C19.9602 7.4105 20.6437 6.72694 20.6437 5.88372C20.6437 5.0405 19.9602 4.35693 19.1169 4.35693C18.2737 4.35693 17.5901 5.0405 17.5901 5.88372C17.5901 6.72694 18.2737 7.4105 19.1169 7.4105Z" fill="white"/>
<path d="M12.4999 6.39282C9.1263 6.39282 6.39276 9.12666 6.39276 12.5C6.39276 15.872 9.1263 18.6077 12.4999 18.6077C15.8725 18.6077 18.607 15.872 18.607 12.5C18.607 9.12666 15.8725 6.39282 12.4999 6.39282ZM12.4999 16.5719C10.2515 16.5719 8.42857 14.7489 8.42857 12.5C8.42857 10.251 10.2515 8.42864 12.4999 8.42864C14.7483 8.42864 16.5712 10.251 16.5712 12.5C16.5712 14.7489 14.7483 16.5719 12.4999 16.5719Z" fill="white"/>
</svg>
