<svg width="24" height="21" viewBox="0 0 24 21" fill="none" xmlns="http://www.w3.org/2000/svg">
<path d="M24 2.48754C23.0971 2.91203 22.142 3.19403 21.1643 3.32483C22.195 2.66689 22.9654 1.62456 23.3295 0.395613C22.3648 1.012 21.3092 1.4461 20.2085 1.67911C19.534 0.902583 18.658 0.36252 17.6945 0.12917C16.731 -0.10418 15.7245 -0.0200163 14.806 0.370713C13.8876 0.761442 13.0996 1.44065 12.5445 2.32C11.9895 3.19935 11.6932 4.23815 11.694 5.30127C11.6905 5.70705 11.729 6.112 11.8086 6.50865C9.85059 6.40512 7.9349 5.85811 6.18665 4.90334C4.4384 3.94857 2.89692 2.60753 1.66291 0.967808C1.02861 2.13427 0.832102 3.51746 1.11354 4.83468C1.39498 6.1519 2.13311 7.30369 3.17708 8.05463C2.39786 8.03201 1.63515 7.80785 0.953368 7.40106V7.45881C0.955562 8.68149 1.3487 9.86608 2.06671 10.8135C2.78472 11.7608 3.78382 12.4133 4.89607 12.6611C4.47515 12.7801 4.0414 12.8384 3.60622 12.8343C3.29286 12.8405 2.97979 12.8106 2.67236 12.7451C2.99101 13.7966 3.60449 14.716 4.42841 15.3769C5.25234 16.0377 6.24623 16.4075 7.27339 16.4354C5.53276 17.9 3.38695 18.6956 1.17769 18.6954C0.784048 18.699 0.390618 18.6744 0 18.6219C2.25266 20.1853 4.87841 21.0114 7.55867 20.9999C16.6169 20.9999 21.569 12.9235 21.569 5.92333C21.569 5.68973 21.569 5.464 21.552 5.23827C22.5164 4.48901 23.3459 3.55688 24 2.48754Z" fill="white"/>
</svg>
