<svg width="25" height="19" viewBox="0 0 25 19" fill="none" xmlns="http://www.w3.org/2000/svg">
<path d="M24.2921 3.75269C23.9931 2.37929 22.9304 1.36603 21.6512 1.21488C18.6219 0.857398 15.5559 0.855532 12.5039 0.857398C9.45143 0.855532 6.38484 0.857398 3.35557 1.21488C2.07709 1.36603 1.01522 2.37929 0.716153 3.75269C0.290497 5.70857 0.285706 7.84359 0.285706 9.85731C0.285706 11.871 0.285706 14.0058 0.711361 15.9614C1.00993 17.3345 2.07205 18.3478 3.35128 18.4992C6.3803 18.857 9.44664 18.8588 12.4991 18.857C15.5521 18.8588 18.6177 18.857 21.6464 18.4992C22.9249 18.3481 23.9878 17.3348 24.2868 15.9614C24.7128 14.0055 24.7143 11.8708 24.7143 9.85731C24.7143 7.84359 24.7178 5.70857 24.2921 3.75269ZM9.34754 13.8656V5.32523C11.9362 6.75311 14.525 8.1809 17.1137 9.60859C14.5164 11.0326 11.9433 12.4426 9.34754 13.8656Z" fill="white"/>
</svg>
